<?xml version="1.0" encoding="utf-8"?>
<!-- Generator: Adobe Illustrator 28.0.0, SVG Export Plug-In . SVG Version: 6.00 Build 0)  -->
<svg version="1.1" id="Ebene_1" xmlns="http://www.w3.org/2000/svg" xmlns:xlink="http://www.w3.org/1999/xlink" x="0px" y="0px"
	 viewBox="0 0 800 266" style="enable-background:new 0 0 800 266;" xml:space="preserve">
<style type="text/css">
	.st0{clip-path:url(#SVGID_00000134245228805751729950000002678053861669878428_);}
	.st1{clip-path:url(#SVGID_00000008147116655539723650000009186820303040338561_);}
	.st2{clip-path:url(#SVGID_00000033359951876841236170000011228024405060422543_);}
	.st3{clip-path:url(#SVGID_00000045593216179166474830000003461019115398565017_);}
	.st4{fill:#EE1E23;}
	.st5{fill:#FFFFFF;}
</style>
<g>
	<g>
		<polygon class="st5" points="597.63,41.6 575.79,76.31 628.96,76.31 652.12,41.6 		"/>
	</g>
</g>
<g>
	<g>
		<rect x="528.8" y="41.6" class="st5" width="46.92" height="34.71"/>
	</g>
</g>
<g>
	<g>
		<rect x="25.3" y="41.6" class="st5" width="46.92" height="34.71"/>
	</g>
</g>
<g>
	<g>
		<rect x="25.3" y="92.56" class="st5" width="46.92" height="34.71"/>
	</g>
</g>
<g>
	<g>
		<rect x="96.63" y="92.56" class="st5" width="139.06" height="34.71"/>
	</g>
</g>
<g>
	<g>
		<polygon class="st5" points="621.68,127.2 612.19,109.92 621.68,92.56 528.8,92.56 528.8,127.2 		"/>
	</g>
</g>
<g>
	<g>
		<polygon class="st5" points="453.72,143.52 467.18,178.16 512.55,178.16 499.09,143.52 		"/>
	</g>
</g>
<g>
	<g>
		<rect x="528.8" y="143.52" class="st5" width="46.92" height="34.71"/>
	</g>
</g>
<g>
	<g>
		<rect x="668.23" y="41.6" class="st5" width="105.67" height="34.71"/>
	</g>
</g>
<g>
	<g>
		<rect x="698.67" y="92.56" class="st5" width="44.86" height="34.71"/>
	</g>
</g>
<g>
	<g>
		<rect x="698.67" y="143.52" class="st5" width="44.86" height="34.71"/>
	</g>
</g>
<g>
	<g>
		<polygon class="st5" points="575.79,143.52 597.63,178.16 652.12,178.16 628.96,143.52 		"/>
	</g>
</g>
<g>
	<g>
		<rect x="260.1" y="143.52" class="st5" width="45.89" height="34.71"/>
	</g>
</g>
<g>
	<g>
		<rect x="25.3" y="143.52" class="st5" width="46.92" height="34.71"/>
	</g>
</g>
<g>
	<g>
		<rect x="96.63" y="143.52" class="st5" width="44.05" height="34.71"/>
	</g>
</g>
<g>
	<g>
		<rect x="191.71" y="143.52" class="st5" width="43.97" height="34.71"/>
	</g>
</g>
<g>
	<g>
		<polygon class="st5" points="377.39,143.52 363.86,178.16 409.23,178.16 422.69,143.52 		"/>
	</g>
</g>
<g>
	<g>
		<polygon class="st5" points="96.63,41.6 96.63,76.31 166.2,76.31 140.68,41.6 		"/>
	</g>
</g>
<g>
	<g>
		<polygon class="st5" points="191.71,41.6 166.2,76.31 235.69,76.31 235.69,41.6 		"/>
	</g>
</g>
<g>
	<g>
		<polygon class="st5" points="140.68,143.52 166.2,178.16 191.71,143.52 		"/>
	</g>
</g>
<g>
	<g>
		<polygon class="st5" points="479.31,92.56 397.17,92.56 383.64,127.2 492.77,127.2 		"/>
	</g>
</g>
<g>
	<g>
		<polygon class="st5" points="416.95,41.6 403.5,76.31 472.99,76.31 459.53,41.6 		"/>
	</g>
</g>
<path class="st5" d="M35.98,224c-5.52,0-11.1-4.5-11.1-11.69c0-6.54,4.71-11.69,11.22-11.69c4.09,0,6.54,1.4,8.37,3.54l-2.29,2.05
	c-1.55-1.61-3.53-2.54-6.01-2.54c-4.4,0-8.06,3.41-8.06,8.59c0,5.83,4.46,8.71,7.94,8.71c2.17,0,4.71-0.87,6.63-3.13l2.23,1.92
	C43.18,222.17,39.95,224,35.98,224z"/>
<path class="st5" d="M60.82,223.63l-9.15-10.57v10.57h-3.1V201h7.32c4.22,0,7.01,3.01,7.01,6.67c0,3.63-3.07,6.48-6.45,6.48
	l8.34,9.49H60.82z M55.33,203.91h-3.66v7.78h3.6c2.79,0,4.4-1.74,4.4-4.15C59.67,205.99,58.27,203.91,55.33,203.91z"/>
<path class="st5" d="M67.6,223.63V201h3.1v22.63H67.6z"/>
<path class="st5" d="M82.05,203.91v19.72h-3.1v-19.72h-4.62V201h12.53v2.91H82.05z"/>
<path class="st5" d="M90.48,223.63V201h3.1v22.63H90.48z"/>
<path class="st5" d="M108.52,224c-5.52,0-11.1-4.5-11.1-11.69c0-6.54,4.71-11.69,11.22-11.69c4.09,0,6.54,1.4,8.37,3.54l-2.29,2.05
	c-1.55-1.61-3.54-2.54-6.02-2.54c-4.4,0-8.06,3.41-8.06,8.59c0,5.83,4.46,8.71,7.94,8.71c2.17,0,4.71-0.87,6.64-3.13l2.23,1.92
	C115.72,222.17,112.49,224,108.52,224z"/>
<path class="st5" d="M135.06,223.63l-2.73-7.32h-7.22l-2.73,7.32h-3.29l8.68-22.63h1.98l8.74,22.63H135.06z M128.89,207.07
	c-0.09-0.22-0.19-0.53-0.19-0.59l-0.16,0.56l-2.36,6.36h5.05L128.89,207.07z"/>
<path class="st5" d="M141.72,223.63V201h3.1v19.72h8.59v2.92H141.72z"/>
<path class="st5" d="M180.66,223.63l-2.73-7.32h-7.22l-2.73,7.32h-3.29l8.68-22.63h1.98l8.74,22.63H180.66z M174.49,207.07
	c-0.09-0.22-0.19-0.53-0.19-0.59l-0.16,0.56l-2.36,6.36h5.05L174.49,207.07z"/>
<path class="st5" d="M202.64,223.63l-11.88-16.4c-0.12-0.19-0.4-0.62-0.4-0.62s0.06,0.5,0.06,0.74v16.28h-3.1V201h2.64l11.72,16.09
	l0.4,0.62c-0.03-0.06-0.06-0.47-0.06-0.71v-16h3.1v22.63H202.64z"/>
<path class="st5" d="M215.38,223.63h-5.49V201h5.77c7.72,0,12.09,5.08,12.09,11.25C227.75,218.54,223.13,223.63,215.38,223.63z
	 M215.6,203.79h-2.6v17.05h2.02c6.7,0,9.52-4.34,9.52-8.56C224.53,207.66,221.02,203.79,215.6,203.79z"/>
<path class="st5" d="M251.31,224c-5.52,0-11.1-4.5-11.1-11.69c0-6.54,4.71-11.69,11.22-11.69c4.09,0,6.54,1.4,8.37,3.54l-2.29,2.05
	c-1.55-1.61-3.54-2.54-6.02-2.54c-4.4,0-8.06,3.41-8.06,8.59c0,5.83,4.46,8.71,7.94,8.71c2.17,0,4.71-0.87,6.64-3.13l2.23,1.92
	C258.5,222.17,255.28,224,251.31,224z"/>
<path class="st5" d="M276.14,223.63l-9.15-10.57v10.57h-3.1V201h7.32c4.22,0,7.01,3.01,7.01,6.67c0,3.63-3.07,6.48-6.45,6.48
	l8.34,9.49H276.14z M270.65,203.91h-3.66v7.78h3.6c2.79,0,4.4-1.74,4.4-4.15C274.99,205.99,273.6,203.91,270.65,203.91z"/>
<path class="st5" d="M282.93,223.63V201h12.65v2.91h-9.55v7.22h9.33v2.91h-9.33v6.67h10.14v2.92H282.93z"/>
<path class="st5" d="M314.61,223.63l-2.73-7.32h-7.22l-2.73,7.32h-3.29l8.68-22.63h1.98l8.74,22.63H314.61z M308.44,207.07
	c-0.09-0.22-0.19-0.53-0.19-0.59l-0.15,0.56l-2.36,6.36h5.05L308.44,207.07z"/>
<path class="st5" d="M325.37,203.91v19.72h-3.1v-19.72h-4.62V201h12.53v2.91H325.37z"/>
<path class="st5" d="M333.8,223.63V201h3.1v22.63H333.8z"/>
<path class="st5" d="M350.01,223.63h-1.92L340.12,201h3.01l5.74,16.34l0.19,0.74c0-0.06,0.09-0.46,0.19-0.74L355,201h2.95
	L350.01,223.63z"/>
<path class="st5" d="M361.17,223.63V201h12.65v2.91h-9.55v7.22h9.33v2.91h-9.33v6.67h10.14v2.92H361.17z"/>
<path class="st5" d="M396.33,223.63h-1.92L386.44,201h3.01l5.74,16.34l0.19,0.74c0-0.06,0.09-0.46,0.19-0.74l5.77-16.34h2.95
	L396.33,223.63z"/>
<path class="st5" d="M407.48,223.63V201h3.1v22.63H407.48z"/>
<path class="st5" d="M415.36,223.63V201h12.65v2.91h-9.55v7.22h9.33v2.91h-9.33v6.67h10.14v2.92H415.36z"/>
<path class="st5" d="M451.35,223.63h-2.11l-4.59-15.1c-0.19-0.47-0.28-0.99-0.28-1.12l-0.28,1.12l-4.68,15.1h-2.05L431.42,201h3.04
	l3.94,14.85c0.09,0.4,0.19,0.96,0.19,0.96s0.12-0.59,0.25-0.99l4.68-14.82h2.05l4.53,14.94c0.09,0.34,0.19,0.9,0.19,0.9
	s0.09-0.56,0.19-0.93l4.22-14.91h3.01L451.35,223.63z"/>
<path class="st5" d="M466.32,224c-2.29,0-4.56-0.59-6.63-2.29l1.77-2.39c1.21,1.08,3.16,1.67,4.71,1.67c2.29,0,3.88-1.02,3.88-3.16
	c0-1.92-1.77-2.98-3.78-4c-3.22-1.64-6.51-3.07-6.51-7.38c0-3.35,2.48-5.83,6.54-5.83c2.26,0,4.34,0.68,6.11,1.92l-1.67,2.54
	c-1.4-1.02-2.57-1.43-4.46-1.43c-1.77,0-3.26,0.9-3.26,2.6c0,2.45,2.17,3.29,4.96,4.68c2.57,1.27,5.3,2.92,5.3,6.7
	C473.27,221.71,470.11,224,466.32,224z"/>
<path class="st5" d="M497.11,224c-6.48,0-11.63-4.93-11.63-11.75c0-6.6,4.93-11.63,11.47-11.63c7.01,0,11.72,5.12,11.72,11.69
	S503.49,224,497.11,224z M496.98,203.66c-4.9,0-8.28,3.63-8.28,8.59c0,5.02,3.94,8.71,8.4,8.71c4.43,0,8.34-3.35,8.34-8.77
	C505.45,207.29,501.97,203.66,496.98,203.66z"/>
<path class="st5" d="M527.83,223.63l-11.88-16.4c-0.12-0.19-0.4-0.62-0.4-0.62s0.06,0.5,0.06,0.74v16.28h-3.1V201h2.64l11.72,16.09
	l0.4,0.62c-0.03-0.06-0.06-0.47-0.06-0.71v-16h3.1v22.63H527.83z"/>
<path class="st5" d="M563.72,223.63v-16.65c0-0.37,0.06-0.81,0.06-0.84c-0.03,0.03-0.19,0.34-0.31,0.5l-7.1,9.58h-1.24l-7.16-9.33
	c-0.12-0.12-0.28-0.4-0.31-0.46c0,0.06,0.06,0.43,0.06,0.81v16.4h-3.1V201h2.64l8.53,11.07l8.28-11.07h2.76v22.63H563.72z"/>
<path class="st5" d="M571.59,223.63V201h12.65v2.91h-9.55v7.22h9.33v2.91h-9.33v6.67h10.14v2.92H571.59z"/>
<path class="st5" d="M594.35,223.63h-5.49V201h5.77c7.72,0,12.09,5.08,12.09,11.25C606.72,218.54,602.1,223.63,594.35,223.63z
	 M594.57,203.79h-2.6v17.05h2.02c6.7,0,9.52-4.34,9.52-8.56C603.5,207.66,599.99,203.79,594.57,203.79z"/>
<path class="st5" d="M610.56,223.63V201h3.1v22.63H610.56z"/>
<path class="st5" d="M632.85,223.63l-2.73-7.32h-7.22l-2.73,7.32h-3.29l8.68-22.63h1.98l8.74,22.63H632.85z M626.68,207.07
	c-0.09-0.22-0.19-0.53-0.19-0.59l-0.15,0.56l-2.36,6.36h5.05L626.68,207.07z"/>
<path class="st5" d="M659.23,224c-5.52,0-11.1-4.5-11.1-11.69c0-6.54,4.71-11.69,11.22-11.69c4.09,0,6.54,1.4,8.37,3.54l-2.29,2.05
	c-1.55-1.61-3.53-2.54-6.01-2.54c-4.4,0-8.06,3.41-8.06,8.59c0,5.83,4.46,8.71,7.94,8.71c2.17,0,4.71-0.87,6.63-3.13l2.23,1.92
	C666.43,222.17,663.2,224,659.23,224z"/>
<path class="st5" d="M680.5,224c-5.21,0-8.84-3.35-8.84-8.93V201h3.13v14.08c0,4.37,2.73,6.02,5.71,6.02c2.95,0,5.8-1.67,5.8-6.02
	V201h3.07v14.08C689.37,220.47,685.55,224,680.5,224z"/>
<path class="st5" d="M693.98,223.63V201h3.1v19.72h8.59v2.92H693.98z"/>
<path class="st5" d="M712.43,203.91v19.72h-3.1v-19.72h-4.62V201h12.53v2.91H712.43z"/>
<path class="st5" d="M729.54,224c-5.21,0-8.84-3.35-8.84-8.93V201h3.13v14.08c0,4.37,2.73,6.02,5.71,6.02c2.95,0,5.8-1.67,5.8-6.02
	V201h3.07v14.08C738.41,220.47,734.59,224,729.54,224z"/>
<path class="st5" d="M755.27,223.63l-9.15-10.57v10.57h-3.1V201h7.32c4.22,0,7.01,3.01,7.01,6.67c0,3.63-3.07,6.48-6.45,6.48
	l8.34,9.49H755.27z M749.78,203.91h-3.66v7.78h3.6c2.79,0,4.4-1.74,4.4-4.15C754.12,205.99,752.73,203.91,749.78,203.91z"/>
<path class="st5" d="M762.06,223.63V201h12.65v2.91h-9.55v7.22h9.33v2.91h-9.33v6.67h10.14v2.92H762.06z"/>
<path class="st5" d="M330.7,127.2c20.88,0,38.24-14.93,41.99-34.71H260.1v0.15v34.56C260.1,127.2,330.7,127.2,330.7,127.2z"/>
<g>
	<g>
		<path class="st5" d="M372.76,76.31c-3.82-19.78-21.18-34.71-42.06-34.71H260.1v34.49v0.15h112.66V76.31z"/>
	</g>
</g>
</svg>
